<svg xmlns="http://www.w3.org/2000/svg" viewBox="0 0 129.34 85.26"><defs><style>.cls-1{fill:#fff;}</style></defs><g id="Layer_2" data-name="Layer 2"><g id="Capa_1" data-name="Capa 1"><path class="cls-1" d="M111.9,0V53.58L71.87,3A16,16,0,0,0,70.4,1.46a5.08,5.08,0,0,0-1.34-.9A5.48,5.48,0,0,0,67.48.12,16.49,16.49,0,0,0,65.31,0H33L0,85.26H15.45A6.46,6.46,0,0,0,19.58,84a7.17,7.17,0,0,0,2.31-3l5-14.86h28V85.26H72.33V31.65L112.13,82a9.37,9.37,0,0,0,3.07,2.54,9,9,0,0,0,3.84.73h10.3V0ZM31.19,53.42l11.39-33.9c.34,1.09.67,2.15,1,3.16.07.24.15.43.22.66l9.27,30.08Z"/></g></g></svg>